PathFileType	4	(X/Y/Z)	KinectSkeleton.trc																																																	
DataRate	CameraRate	NumFrames	NumMarkers	Units	OrigDataRate	OrigDataStartFrame	OrigNumFrames																																													
60	60	20	17	mm	60	124	300																																													
Frame#	Time	Neck			ShoulderMid			R.Shoulder			L.Shoulder			R.Elbow			L.Elbow			R.Wrist			L.Wrist			HipCenter			R.Hip			L.Hip			R.Knee			L.Knee			R.Ankle			L.Ankle			R.Foot			L.Foot		
		X1	Y1	Z1	X2	Y2	Z2	X3	Y3	Z3	X4	Y4	Z4	X5	Y5	Z5	X6	Y6	Z6	X7	Y7	Z7	X8	Y8	Z8	X9	Y9	Z9	X10	Y10	Z10	X11	Y11	Z11	X12	Y12	Z12	X13	Y13	Z13	X14	Y14	Z14	X15	Y15	Z15	X16	Y16	Z16	X17	Y17	Z17
																																																				
124	8.484	-982.982	1442.569	556.913	-982.982	1442.569	556.913	-990.271	1350.606	709.01	-1003.16	1406.121	376.051	-1065.909	1084.033	773.44	-1035.073	1305.387	117.612	-985.803	860.7	768.979	-941.532	1231.119	-84.005	-1023.828	901.814	536.301	-1028.654	902.485	619.233	-1018.476	901.069	444.333	-1036.664	501.708	669.916	-1031.553	498.09	412.017	-1081.016	115.206	705.127	-1084.022	116.392	380.64	-952.64	11.895	761.464	-926.504	11.725	372.886
125	8.546	-985.841	1445.041	549.388	-985.841	1445.041	549.388	-989.959	1355.289	703.667	-999.757	1399.744	368.529	-1068.26	1089.506	771.94	-1030.182	1257.422	129.247	-986.324	866.018	770.942	-929.316	1137.439	-45.922	-1024.317	902.218	536.479	-1029.734	903.872	619.617	-1018.309	900.384	444.282	-1037.087	501.807	670.134	-1032.342	496.225	411.502	-1081.222	114.067	705.363	-1082.01	112.946	380.17	-948.62	14.938	761.082	-921.041	12.342	376.188
126	8.609	-986.229	1448.377	543.075	-986.229	1448.377	543.075	-989.995	1362.143	700.104	-998.111	1397.807	362.648	-1067.002	1094.793	768.016	-1028.478	1215.49	150.896	-990.466	868.532	772.107	-928.26	1061.271	3.167	-1023.591	903.344	537.19	-1030.527	905.575	620.502	-1015.898	900.87	444.801	-1038.233	502.002	670.617	-1032.37	495.381	411.533	-1082.417	112.769	704.976	-1084.967	111.2	378.816	-949.091	13.901	761.397	-922.901	11.031	376.022
127	8.67	-985.499	1449.868	537.926	-985.499	1449.868	537.926	-990.315	1366.533	696.722	-995.096	1399.847	357.507	-1066.006	1099.005	767.208	-1031.718	1184.534	179.908	-990.765	871.978	773.58	-943.755	997.773	65.001	-1022.984	903.955	536.706	-1029.757	906.465	620.151	-1015.473	901.172	444.168	-1036.804	502.329	670.867	-1029.316	494.847	412.327	-1082.887	112.636	704.378	-1084.144	110.287	380.663	-949.7	13.861	762.105	-920.935	11.512	375.746
128	8.731	-987.601	1454.069	537.882	-987.601	1454.069	537.882	-990.595	1370.641	697.447	-995.333	1401.72	357.212	-1065.304	1100.794	763.922	-1037.39	1173.068	196.836	-990.046	872.988	772.083	-944.293	980.817	94.044	-1023.219	906.03	536.755	-1029.106	908.216	620.556	-1016.69	903.606	443.822	-1036.826	502.668	670.834	-1028.412	495.833	412.197	-1082.611	111.628	704.518	-1083.334	109.974	380.484	-946.358	15.824	761.878	-918.705	12.3	376.208
129	8.791	-988.863	1456.319	532.096	-988.863	1456.319	532.096	-991.134	1374.891	693.354	-999.402	1393.552	353.291	-1064.654	1104.865	763.337	-1045.947	1144.798	226.366	-989.787	876.331	771.693	-953.528	938.581	152.896	-1022.568	906.73	538.287	-1029.963	909.673	622.149	-1014.367	903.466	445.288	-1035.573	503.016	671.738	-1026.65	494.838	412.206	-1084.275	111.165	702.972	-1084.011	108.568	378.289	-948.264	15.958	763.135	-917.121	13.781	377.374
130	8.853	-986.952	1454.506	528.686	-986.952	1454.506	528.686	-990.156	1375.148	690.521	-993.791	1386.198	351.613	-1060.645	1105.158	761.267	-1055.168	1128.298	253.941	-988.125	876.549	773.076	-960.699	915.24	210.236	-1019.933	905.948	537.965	-1027.884	909.002	621.594	-1011.115	902.561	445.224	-1035.832	503.243	671.132	-1028.699	494.98	412.271	-1082.681	112.099	703.519	-1083.513	109.045	379.838	-947.188	16.47	763.092	-917.49	13.592	376.948
131	8.915	-986.812	1457.59	522.671	-986.812	1457.59	522.671	-988.192	1380.785	685.886	-990.512	1391.606	344.771	-1059.987	1110.795	757.947	-1058.314	1126.138	273.294	-983.16	882.929	767.699	-964.942	909.446	244.88	-1018.19	907.844	536.271	-1025.679	911.647	620.102	-1009.885	903.626	443.305	-1031.944	505.163	671.501	-1027.206	495.02	411.457	-1083.524	113.645	703.056	-1087.953	109.023	379.716	-950.009	14.924	763.225	-923.716	9.742	375.427
132	8.976	-985.158	1459.778	519.933	-985.158	1459.778	519.933	-986.994	1380.685	682.524	-987.902	1385.695	344.317	-1058.085	1110.681	754.587	-1065.08	1119.768	285.863	-981.807	882.954	767.922	-969.614	902.565	274.575	-1015.505	910.171	532.889	-1023.486	913.18	616.66	-1006.654	906.835	439.99	-1031.404	507.272	670.518	-1026.436	498.426	410.04	-1084.904	116.357	703.536	-1084.689	112.085	380.581	-951.665	16.669	762.421	-921.474	11.346	376.059
133	9.039	-982.839	1457.234	518.75	-982.839	1457.234	518.75	-985.108	1379.878	681.833	-986.46	1381.404	344.081	-1057.055	1110.698	754.552	-1066.114	1115.777	289.592	-979.761	883.521	765.257	-967.707	900.114	281.223	-1016.603	908.619	533.128	-1022.73	911.516	616.944	-1009.808	905.406	440.179	-1030.536	506.138	670.559	-1026.838	497.455	409.965	-1086.08	116.033	703.311	-1082.761	111.267	381.106	-954.628	15.772	764.475	-919.155	11.689	376.132
134	9.101	-982.126	1459.115	516.994	-982.126	1459.115	516.994	-983.861	1382.659	680.539	-985.147	1384.489	341.711	-1054.294	1113.107	754.787	-1068.202	1118.89	290.403	-980.652	884.402	765.515	-972.54	901.531	287.125	-1016.872	909.946	533.004	-1022.795	913.327	616.923	-1010.305	906.196	439.941	-1030.313	507.403	670.393	-1027.2	497.729	409.608	-1083.66	116.597	704.453	-1083.718	111.118	380.857	-949.639	17.278	762.118	-919.771	11.627	376.026
135	9.16	-981.922	1458.375	513.181	-981.922	1458.375	513.181	-984.447	1382.524	676.959	-986.448	1383.357	338.389	-1053.74	1112.915	751.176	-1065.897	1117.174	285.666	-979.399	884.746	763.964	-967.294	901.327	283.621	-1014.552	909.709	533.042	-1021.888	913.642	616.757	-1006.418	905.348	440.205	-1030.927	508.109	670.444	-1025.291	497.313	409.662	-1083.873	117.546	704.227	-1083.302	111.333	379.716	-952.242	15.642	762.454	-920.357	10.446	376.197
136	9.219	-980.916	1457.565	512.477	-980.916	1457.565	512.477	-984.137	1381.787	676.11	-986.296	1383.264	337.657	-1053.64	1112.657	750.898	-1064.691	1117.283	283.669	-979.192	884.689	762.681	-970.214	899.818	282.312	-1014.543	909.448	532.091	-1021.77	913.363	615.743	-1006.528	905.107	439.324	-1029.526	508.285	670.347	-1026.774	497.425	409.726	-1083.299	118.195	704.265	-1083.972	111.562	381.179	-953.04	14.832	762.54	-921.738	10.09	373.356
137	9.283	-980.282	1457.023	512.402	-980.282	1457.023	512.402	-983.647	1380.77	675.528	-984.948	1380.96	338.139	-1054.155	1112.575	751.375	-1063.398	1115.768	282.185	-979.548	884.922	762.239	-965.508	900.135	283.452	-1014.404	909.586	531.139	-1021.171	913.573	614.723	-1006.901	905.166	438.447	-1030.133	509.043	669.474	-1027.411	497.97	409.251	-1080.714	119.229	705.775	-1081.572	112.102	381.397	-947.339	18.765	761.361	-919.434	10.91	373.664
138	9.348	-981.297	1456.299	510.496	-981.297	1456.299	510.496	-983.967	1380.02	673.799	-985.323	1381.084	336.027	-1057.956	1112.225	748.263	-1059.735	1114.32	281.353	-981.373	885.193	760.828	-959.392	899.686	281.487	-1015.777	908.622	529.032	-1022.763	912.311	612.653	-1008.029	904.531	436.3	-1030.592	507.902	669.901	-1025.607	496.921	408.203	-1081.711	117.927	705.808	-1084.615	111.586	380.134	-952.386	14.695	765.973	-923.109	9.042	375.243
139	9.406	-981.099	1456.904	509.759	-981.099	1456.904	509.759	-986.149	1380.337	672.838	-982.925	1380.494	335.735	-1057.834	1112.242	747.829	-1058.575	1114.659	279.114	-985.795	883.924	761.284	-961.315	898.783	282.127	-1014.573	909.512	529.225	-1022.376	913.411	612.715	-1005.919	905.189	436.637	-1032.723	509.097	668.527	-1024.739	497.891	408.264	-1080.244	119.071	706.262	-1082.389	112.578	380.242	-950.836	15.633	765.593	-921.352	9.477	375.92
140	9.468	-979.391	1456.941	507.406	-979.391	1456.941	507.406	-985.901	1379.959	670.444	-981.934	1380.124	333.589	-1059.158	1112.376	745.833	-1056.711	1113.576	279.087	-985.861	884.348	757.674	-957.738	898.465	282.56	-1015.215	909.727	528.885	-1023.22	913.95	612.347	-1006.337	905.043	436.328	-1033.2	509.486	667.377	-1024.82	497.68	408.172	-1080.425	119.303	704.198	-1083.068	112.437	379.971	-949.8	16.348	761.716	-921.602	9.965	376.004
141	9.528	-979.711	1456.289	505.709	-979.711	1456.289	505.709	-985.027	1380.253	669.184	-981.697	1381.186	331	-1059.526	1112.568	744.46	-1055.259	1114.562	273.355	-985.627	884.553	758.979	-959.131	897.862	278.933	-1016.126	908.523	529.082	-1023.479	913.569	612.671	-1007.972	902.927	436.385	-1032.953	508.54	667.688	-1025.982	495.002	408.143	-1080.907	117.936	704.746	-1083.676	109.134	380.115	-948.401	16.638	761.62	-918.853	11.648	376.262
142	9.59	-980.531	1457.032	500.782	-980.531	1457.032	500.782	-984.19	1381.536	664.905	-979.679	1380.385	326.407	-1060.142	1114.133	741.576	-1051.418	1112.235	271.256	-985.928	885.985	758.857	-955.08	895.305	280.257	-1016.874	908.362	525.93	-1024.301	913.456	609.653	-1008.637	902.713	433.085	-1033.959	508.076	667.129	-1026.282	493.923	407.189	-1080.999	116.853	705.908	-1083.333	107.176	380.795	-948.735	16.501	765.862	-917.887	10.136	376.305
143	9.652	-977.815	1456.932	493.871	-977.815	1456.932	493.871	-984.492	1382.028	658.264	-978.925	1381.169	319.398	-1060.503	1115.778	738.724	-1047.078	1111.205	268.836	-988.889	887.141	759.857	-954.683	892.542	276.731	-1017.686	908.863	522.611	-1024.39	914.551	606.351	-1010.252	902.555	429.747	-1035.097	509.31	664.421	-1025.969	493.523	407.062	-1085.445	118.602	703.959	-1084.871	106.898	383.476	-954.334	15.726	762.103	-919.498	9.843	377.464
